<?xml version="1.0" encoding="UTF-8"?>
<svg version="1.1" xmlns="http://www.w3.org/2000/svg" width="1299" height="1039">
<path d="M0 0 C47.30181258 45.18509251 66.92931897 112.96012074 68.53125 176.7890625 C68.72754788 204.91924957 65.57918644 232.34901854 59.53125 259.7890625 C57.22125 259.7890625 54.91125 259.7890625 52.53125 259.7890625 C52.6034375 258.61601562 52.675625 257.44296875 52.75 256.234375 C54.25123244 229.05220183 55.44403274 200.79103086 51.53125 173.7890625 C51.40766113 172.85562012 51.28407227 171.92217773 51.15673828 170.96044922 C43.59188078 114.26528085 19.84368597 53.68283509 -26.90625 17.8515625 C-35.28534848 11.60063037 -44.1793371 6.5498096 -53.46875 1.7890625 C-54.1498584 1.43360352 -54.8309668 1.07814453 -55.53271484 0.71191406 C-90.33511423 -17.29369941 -131.00009316 -24.46147702 -169.90625 -24.3984375 C-171.03149582 -24.39703262 -171.03149582 -24.39703262 -172.17947388 -24.39559937 C-229.14511225 -24.24198382 -286.41708709 -8.17615538 -327.99609375 32.24609375 C-349.2020799 54.71922143 -359.43201118 83.48240906 -362.46875 113.7890625 C-371.63865055 114.72291376 -378.8633659 114.10254935 -387.34375 110.5390625 C-459.81842941 80.32913437 -551.92790538 63.45800744 -628.46875 84.7890625 C-629.68715576 85.11898193 -629.68715576 85.11898193 -630.93017578 85.45556641 C-656.15069935 92.43351318 -677.92670668 106.66556886 -696.46875 124.7890625 C-697.0352124 125.33433594 -697.6016748 125.87960938 -698.18530273 126.44140625 C-721.6227222 149.3342191 -736.22709026 181.17937053 -743.46875 212.7890625 C-743.76265625 214.06007813 -744.0565625 215.33109375 -744.359375 216.640625 C-755.33382969 269.46863726 -745.97405826 330.76441382 -717.51953125 376.953125 C-715.90475788 379.29726791 -714.22850234 381.55244682 -712.46875 383.7890625 C-711.94152344 384.49289062 -711.41429687 385.19671875 -710.87109375 385.921875 C-709.10990799 388.24514132 -707.29874347 390.51958241 -705.46875 392.7890625 C-704.69015625 393.76617187 -703.9115625 394.74328125 -703.109375 395.75 C-644.95751643 467.44014881 -540.00150066 488.55653379 -439.46875 500.7890625 C-439.41194958 512.52415044 -439.55631984 524.23299585 -439.92773438 535.96191406 C-439.97724118 537.59074164 -440.02649356 539.21957696 -440.07551575 540.84841919 C-440.18041561 544.31851158 -440.2869294 547.78854906 -440.39472961 551.25855255 C-440.56608362 556.77934516 -440.73279071 562.30027258 -440.89880371 567.82122803 C-441.34161516 582.52470185 -441.7900838 597.22800189 -442.24183702 611.9312036 C-442.53914799 621.60832563 -442.83376489 631.28552181 -443.12358522 640.96287131 C-443.26073413 645.5366742 -443.39955892 650.11041123 -443.54277039 654.68402863 C-444.21142366 676.06084473 -444.64325903 697.40058414 -444.46875 718.7890625 C-443.52369095 718.30514542 -442.5786319 717.82122833 -441.60493469 717.32264709 C-408.48580985 700.46747747 -367.95709672 697.0231529 -331.52038574 693.01757812 C-329.70312564 692.81516777 -327.88709835 692.60175566 -326.07128906 692.38671875 C-259.50691789 684.51137274 -196.78526025 702.92943338 -136.46875 729.7890625 C-134.21748688 730.78264037 -131.96618476 731.77612988 -129.71484375 732.76953125 C-117.31467895 738.26808336 -104.99594726 743.92867186 -92.70288086 749.66186523 C-24.48427244 781.47092581 45.81045908 813.1891719 122.81314087 806.30059814 C123.88490381 806.20483112 124.95666676 806.1090641 126.06090736 806.01039505 C126.87612043 805.93735531 127.6913335 805.86431557 128.53125 805.7890625 C128.53010445 804.831493 128.52895889 803.87392349 128.52777863 802.88733673 C128.49822158 775.43750745 128.59142024 747.9891988 128.73317909 720.53977013 C128.76193462 714.929227 128.78952745 709.31867814 128.81726074 703.70812988 C128.86959098 693.15549966 128.92291773 682.60287474 128.9766326 672.05025148 C129.03788922 660.00602611 129.09798911 647.96179504 129.15800762 635.91756344 C129.28116451 611.20805674 129.40572273 586.49855727 129.53125 561.7890625 C132.17125 561.7890625 134.81125 561.7890625 137.53125 561.7890625 C142.547585 609.9939892 146.83204551 658.24815245 150.68086338 706.5588994 C150.84253042 708.58626846 151.00461491 710.61360368 151.16686249 712.64092636 C153.26259502 738.82779777 155.33263103 765.0172403 157.12651634 791.22681236 C157.25548338 793.10974013 157.38588983 794.99257003 157.51793861 796.87528419 C158.261191 807.53508955 158.70639335 818.10116146 158.53125 828.7890625 C149.32207846 831.55896374 140.1799613 833.82400249 130.72485352 835.59936523 C128.70110847 835.97987955 126.67963428 836.37106881 124.65820312 836.76367188 C41.41983763 852.77166163 -39.96144689 818.80703599 -115.77178955 788.46809387 C-180.66829082 762.35461185 -180.66829082 762.35461185 -248.46875 745.7890625 C-249.21092773 745.65918945 -249.95310547 745.52931641 -250.71777344 745.39550781 C-277.98789405 740.770599 -305.443386 744.55656414 -332.46875 748.7890625 C-333.2178363 748.90505798 -333.96692261 749.02105347 -334.7387085 749.14056396 C-351.27535697 751.7082312 -367.60589109 754.85376286 -383.84375 758.9140625 C-384.50107117 759.07814606 -385.15839233 759.24222961 -385.83563232 759.4112854 C-393.26770857 761.28298493 -400.55037675 763.38215169 -407.77197266 765.95263672 C-413.85556476 767.83950858 -419.83541483 767.98738553 -426.1484375 768.10546875 C-427.11049103 768.12624985 -428.07254456 768.14703094 -429.06375122 768.16844177 C-431.11976802 768.21168845 -433.17583215 768.25273253 -435.23193359 768.29174805 C-438.21599024 768.34910674 -441.19974779 768.41509638 -444.18359375 768.48242188 C-464.2769685 768.90432518 -484.37208782 768.83189747 -504.46875 768.7890625 C-504.5007237 755.39324104 -504.52017965 741.99741738 -504.53125 728.6015625 C-504.53210602 727.5733778 -504.53296204 726.5451931 -504.53384399 725.48585129 C-504.56216293 686.77222071 -504.32018497 648.06323254 -503.96875 609.3515625 C-503.95679218 608.03381962 -503.94483437 606.71607674 -503.93251419 605.35840225 C-503.78495918 589.16855299 -503.63038663 572.97877712 -503.46875 556.7890625 C-504.13927336 556.72560733 -504.80979671 556.66215216 -505.50063896 556.5967741 C-506.83291621 556.46774307 -506.83291621 556.46774307 -508.19210815 556.33610535 C-509.06888151 556.25202518 -509.94565487 556.167945 -510.84899712 556.08131695 C-514.72842777 555.64853534 -518.52743931 554.92398793 -522.3515625 554.15234375 C-523.56441673 553.91278961 -523.56441673 553.91278961 -524.80177307 553.668396 C-527.40040587 553.15241282 -529.99723492 552.62809293 -532.59375 552.1015625 C-533.4867984 551.92132538 -534.3798468 551.74108826 -535.29995728 551.5553894 C-578.30934978 542.85261475 -619.95049207 530.08784045 -659.46875 510.7890625 C-660.28956055 510.38896973 -661.11037109 509.98887695 -661.95605469 509.57666016 C-681.31612788 500.02373114 -699.89994116 488.65141253 -716.46875 474.7890625 C-717.36722656 474.08007812 -718.26570312 473.37109375 -719.19140625 472.640625 C-731.19703085 463.12806825 -742.58326587 452.49657704 -752.46875 440.7890625 C-753.16742187 439.98984375 -753.86609375 439.190625 -754.5859375 438.3671875 C-761.13318548 430.67824859 -766.63594953 422.35154492 -772.10986328 413.87988281 C-773.25001448 412.12561497 -774.41685383 410.38873235 -775.58984375 408.65625 C-798.16770159 374.20272057 -807.69613411 332.12317115 -812.46875 291.7890625 C-812.5733252 290.92917725 -812.67790039 290.06929199 -812.78564453 289.18334961 C-813.74438299 280.22454756 -813.71239769 271.22659512 -813.71875 262.2265625 C-813.71942474 261.36490479 -813.72009949 260.50324707 -813.72079468 259.61547852 C-813.67473333 222.41856932 -806.21739404 186.93019879 -791.46875 152.7890625 C-791.13004883 152.00176758 -790.79134766 151.21447266 -790.44238281 150.40332031 C-782.48215975 132.1620874 -772.13425947 115.14548693 -759.46875 99.7890625 C-759.04948242 99.26973145 -758.63021484 98.75040039 -758.19824219 98.21533203 C-747.05204233 84.41029036 -734.72273498 72.35099218 -720.46875 61.7890625 C-719.34894089 60.93882505 -718.2291491 60.0885648 -717.109375 59.23828125 C-657.55437894 14.69707727 -578.3573144 10.08419618 -507.30731201 20.23168945 C-470.17885037 25.69345676 -434.0556615 36.06905457 -398.46875 47.7890625 C-398.2315625 46.96535156 -397.994375 46.14164062 -397.75 45.29296875 C-396.22964491 41.13516839 -394.22360214 37.52373179 -391.96875 33.7265625 C-391.52732666 32.98140381 -391.08590332 32.23624512 -390.63110352 31.46850586 C-384.59421531 21.46980945 -377.42272908 12.56973368 -369.4765625 4.0078125 C-368.06919262 2.45258664 -366.72007061 0.84358738 -365.41796875 -0.80078125 C-362.48342432 -4.42926604 -359.04772233 -7.23209773 -355.46875 -10.2109375 C-354.96472656 -10.63793945 -354.46070313 -11.06494141 -353.94140625 -11.50488281 C-343.73723139 -20.11840689 -332.94006999 -27.39124407 -321.46875 -34.2109375 C-320.84597168 -34.58702148 -320.22319336 -34.96310547 -319.58154297 -35.35058594 C-236.81755788 -84.77230958 -112.37187714 -75.14863677 0 0 Z " fill="#000000" transform="translate(821.46875,70.2109375)"/>
<path d="M0 0 C0.72826492 -0.00983917 1.45652985 -0.01967834 2.2068634 -0.02981567 C18.51897329 -0.20472413 34.26364621 -0.09451913 50.1171875 4.23828125 C50.96667969 4.46902344 51.81617188 4.69976562 52.69140625 4.9375 C71.50751107 10.25326056 90.44379559 18.43740869 106.1171875 30.23828125 C107.65632813 31.37330078 107.65632813 31.37330078 109.2265625 32.53125 C127.29905043 46.02780466 144.35867599 61.30029738 158.1171875 79.23828125 C158.92414062 80.26308594 159.73109375 81.28789062 160.5625 82.34375 C170.72717616 95.29834687 179.47693656 108.65637079 187.1171875 123.23828125 C187.47699707 123.91842285 187.83680664 124.59856445 188.20751953 125.29931641 C201.67779755 151.10626653 208.34144327 180.05143655 208.3671875 209.05078125 C208.36819962 210.079151 208.36819962 210.079151 208.36923218 211.1282959 C208.3511866 222.71861453 207.59086418 233.89248074 205.1171875 245.23828125 C204.95089844 246.01494141 204.78460937 246.79160156 204.61328125 247.59179688 C196.5153177 284.15260267 176.78464411 315.47975316 151.1171875 342.23828125 C150.33472656 343.06199219 149.55226563 343.88570312 148.74609375 344.734375 C143.24577338 350.39156726 137.31245242 355.3611578 131.1171875 360.23828125 C129.60125 361.44484375 129.60125 361.44484375 128.0546875 362.67578125 C56.10579581 419.41777428 -36.15609521 432.2975658 -125.05831909 422.04463196 C-191.37988375 414.11013505 -254.98478404 394.1484119 -318.17829132 373.29936218 C-407.81189372 343.72721541 -499.71784103 315.1916443 -637.51367188 350.19311523 C-638.32513672 350.47614502 -639.13660156 350.7591748 -639.97265625 351.05078125 C-640.68284912 351.30472656 -641.39304199 351.55867188 -642.12475586 351.8203125 C-643.8828125 352.23828125 -643.8828125 352.23828125 -645.8828125 351.23828125 C-571.591877 297.37861047 -478.4321424 291.20700485 -390.59912109 305.18408203 C-352.27446184 311.41728843 -314.57441518 320.60852654 -276.8360548 329.63240719 C-193.27040588 349.61212916 -106.23088208 369.99782022 67.80053711 324.36254883 C75.21442122 319.74117656 82.26263753 314.65481375 89.1171875 309.23828125 C90.48423828 308.16126953 90.48423828 308.16126953 91.87890625 307.0625 C116.5576677 287.24203966 135.434775 263.02138013 144.1171875 232.23828125 C144.436875 231.17609375 144.7565625 230.11390625 145.0859375 229.01953125 C149.61657209 211.06479415 149.0503989 189.07373786 144.1171875 171.23828125 C143.62412109 169.37236328 143.62412109 169.37236328 143.12109375 167.46875 C136.07397372 142.2950468 123.1209514 119.73922687 107.1171875 99.23828125 C105.99570313 97.79775391 105.99570313 97.79775391 104.8515625 96.328125 C79.02555216 64.04561208 46.50626552 40.75482883 4.69140625 35.6484375 C-53.02817761 29.81936789 -110.8346283 58.7759719 -155.8828125 92.23828125 C-156.50091797 92.69557617 -157.11902344 93.15287109 -157.75585938 93.62402344 C-161.14918836 96.13914295 -164.52479611 98.67609533 -167.8828125 101.23828125 C-167.8828125 91.91978071 -152.09548453 79.72880736 -145.8828125 73.23828125 C-144.52736328 71.81902344 -144.52736328 71.81902344 -143.14453125 70.37109375 C-137.41400566 64.50347424 -131.30044612 59.33439444 -124.8828125 54.23828125 C-123.71349477 53.28029003 -122.5455935 52.320568 -121.37890625 51.359375 C-112.89514043 44.4057989 -104.18085935 38.05944465 -94.8828125 32.23828125 C-93.88942871 31.61590576 -93.88942871 31.61590576 -92.87597656 30.98095703 C-65.23108895 13.83638081 -32.98499609 0.36983706 0 0 Z " fill="#000000" transform="translate(1071.8828125,180.76171875)"/>
<path d="M0 0 C4.71498932 3.97393534 9.26645285 8.08065853 13.75 12.3125 C19.63633636 17.81133216 25.67613017 23.00576434 32 28 C33.24501957 29.01013583 34.48979335 30.02057465 35.734375 31.03125 C53.28232213 45.12656682 72.35010901 58.0068935 92 69 C93.30735107 69.73162354 93.30735107 69.73162354 94.64111328 70.47802734 C163.4391641 108.75275667 238.26720741 128.515176 317 130 C318.1142334 130.02191406 319.2284668 130.04382813 320.37646484 130.06640625 C381.3937879 131.07593041 439.12569273 120.55190717 498.24798584 106.33413696 C573.46555769 88.26751163 573.46555769 88.26751163 609 90 C610.28680664 90.0616333 610.28680664 90.0616333 611.59960938 90.12451172 C640.48791572 91.63858404 667.29745402 98.16282637 694 109 C694 109.66 694 110.32 694 111 C693.10821045 110.93143799 692.2164209 110.86287598 691.29760742 110.79223633 C661.73615396 108.71432156 631.12064235 107.99091214 602 114 C600.82840332 114.23654297 599.65680664 114.47308594 598.44970703 114.71679688 C572.62022133 120.12705024 547.83695915 129.23258436 523 138 C522.15260254 138.29898193 521.30520508 138.59796387 520.43212891 138.90600586 C514.46408843 141.01282756 508.49831563 143.12604251 502.53347778 145.24191284 C405.79267413 179.53768182 301.25394757 188.95769158 202 159 C201.08041504 158.72494629 200.16083008 158.44989258 199.21337891 158.16650391 C147.88677168 142.57594804 99.89523256 115.18021755 60.71875 78.53125 C58.23072012 76.21480839 55.68917871 73.98116849 53.125 71.75 C42.38133187 62.07552517 32.93678387 51.15017299 24.23632812 39.63037109 C23.06251822 38.08244406 21.86774206 36.55048186 20.671875 35.01953125 C14.51624648 27.04519431 9.17419268 18.63115655 4 10 C3.41532959 9.04407959 3.41532959 9.04407959 2.81884766 8.06884766 C0 3.34848485 0 3.34848485 0 0 Z " fill="#000000" transform="translate(321,849)"/>
</svg>
